<svg width="34" height="33" viewBox="0 0 34 33" fill="none" xmlns="http://www.w3.org/2000/svg">
<g clip-path="url(#clip0_2253_698)">
<path d="M28 0H4.625V4.125H1.875V6.875H4.625V9.625H1.875V12.375H4.625V15.125H1.875V17.875H4.625V20.625H1.875V23.375H4.625V26.125H1.875V28.875H4.625V33H28C29.094 33 30.1432 32.5654 30.9168 31.7918C31.6904 31.0182 32.125 29.969 32.125 28.875V4.125C32.125 3.03098 31.6904 1.98177 30.9168 1.20818C30.1432 0.434597 29.094 0 28 0ZM18.375 5.5C19.3268 5.5 20.2573 5.78225 21.0487 6.31105C21.8401 6.83986 22.4569 7.59147 22.8212 8.47084C23.1854 9.35021 23.2807 10.3178 23.095 11.2514C22.9093 12.1849 22.451 13.0424 21.778 13.7155C21.1049 14.3885 20.2474 14.8468 19.3139 15.0325C18.3803 15.2182 17.4127 15.1229 16.5333 14.7587C15.654 14.3944 14.9024 13.7776 14.3736 12.9862C13.8447 12.1948 13.5625 11.2643 13.5625 10.3125C13.5625 9.03615 14.0695 7.81207 14.972 6.90955C15.8746 6.00703 17.0986 5.5 18.375 5.5ZM26.625 24.75H23.875V22C23.875 21.6353 23.7301 21.2856 23.4723 21.0277C23.2144 20.7699 22.8647 20.625 22.5 20.625H14.25C13.8853 20.625 13.5356 20.7699 13.2777 21.0277C13.0199 21.2856 12.875 21.6353 12.875 22V24.75H10.125V22C10.125 20.906 10.5596 19.8568 11.3332 19.0832C12.1068 18.3096 13.156 17.875 14.25 17.875H22.5C23.594 17.875 24.6432 18.3096 25.4168 19.0832C26.1904 19.8568 26.625 20.906 26.625 22V24.75ZM16.3125 10.3125C16.3125 9.90458 16.4335 9.50581 16.6601 9.16664C16.8867 8.82746 17.2088 8.5631 17.5857 8.407C17.9626 8.25089 18.3773 8.21005 18.7774 8.28963C19.1775 8.36921 19.545 8.56565 19.8334 8.85409C20.1219 9.14254 20.3183 9.51004 20.3979 9.91013C20.4775 10.3102 20.4366 10.7249 20.2805 11.1018C20.1244 11.4787 19.86 11.8008 19.5209 12.0274C19.1817 12.254 18.7829 12.375 18.375 12.375C17.828 12.375 17.3034 12.1577 16.9166 11.7709C16.5298 11.3841 16.3125 10.8595 16.3125 10.3125Z" fill="#ED555A"/>
</g>
<defs>
<clipPath id="clip0_2253_698">
<rect width="33" height="33" fill="white" transform="translate(0.5)"/>
</clipPath>
</defs>
</svg>
