<svg width="27" height="26" viewBox="0 0 27 26" fill="none" xmlns="http://www.w3.org/2000/svg">
<path d="M3.375 13H12.375V14.5H3.375V13ZM1.875 9.25H9.375V10.75H1.875V9.25Z" fill="#202020"/>
<path d="M22.8143 13.4545L20.5643 8.2045C20.5065 8.06956 20.4104 7.95455 20.2879 7.87375C20.1653 7.79295 20.0218 7.74992 19.875 7.75H17.625V6.25C17.625 6.05109 17.546 5.86032 17.4053 5.71967C17.2647 5.57902 17.0739 5.5 16.875 5.5H4.87501V7H16.125V16.417C15.7833 16.6154 15.4842 16.8796 15.245 17.1942C15.0058 17.5088 14.8313 17.8676 14.7315 18.25H10.0185C9.83596 17.543 9.40183 16.9269 8.7975 16.517C8.19317 16.1072 7.46012 15.9319 6.73576 16.0239C6.0114 16.1159 5.34546 16.4689 4.86277 17.0168C4.38007 17.5647 4.11377 18.2698 4.11377 19C4.11377 19.7302 4.38007 20.4353 4.86277 20.9832C5.34546 21.5311 6.0114 21.8841 6.73576 21.9761C7.46012 22.0681 8.19317 21.8928 8.7975 21.483C9.40183 21.0731 9.83596 20.457 10.0185 19.75H14.7315C14.8947 20.3937 15.2678 20.9646 15.7918 21.3724C16.3159 21.7802 16.961 22.0016 17.625 22.0016C18.289 22.0016 18.9341 21.7802 19.4582 21.3724C19.9822 20.9646 20.3554 20.3937 20.5185 19.75H22.125C22.3239 19.75 22.5147 19.671 22.6553 19.5303C22.796 19.3897 22.875 19.1989 22.875 19V13.75C22.875 13.6484 22.8544 13.5478 22.8143 13.4545ZM7.12501 20.5C6.82833 20.5 6.53833 20.412 6.29165 20.2472C6.04498 20.0824 5.85272 19.8481 5.73919 19.574C5.62566 19.2999 5.59595 18.9983 5.65383 18.7074C5.71171 18.4164 5.85457 18.1491 6.06435 17.9393C6.27413 17.7296 6.5414 17.5867 6.83237 17.5288C7.12334 17.4709 7.42494 17.5006 7.69903 17.6142C7.97312 17.7277 8.20739 17.92 8.37221 18.1666C8.53703 18.4133 8.62501 18.7033 8.62501 19C8.62461 19.3977 8.46645 19.779 8.18523 20.0602C7.90401 20.3414 7.52271 20.4996 7.12501 20.5ZM17.625 9.25H19.38L20.988 13H17.625V9.25ZM17.625 20.5C17.3283 20.5 17.0383 20.412 16.7917 20.2472C16.545 20.0824 16.3527 19.8481 16.2392 19.574C16.1257 19.2999 16.096 18.9983 16.1538 18.7074C16.2117 18.4164 16.3546 18.1491 16.5643 17.9393C16.7741 17.7296 17.0414 17.5867 17.3324 17.5288C17.6233 17.4709 17.9249 17.5006 18.199 17.6142C18.4731 17.7277 18.7074 17.92 18.8722 18.1666C19.037 18.4133 19.125 18.7033 19.125 19C19.1246 19.3977 18.9664 19.779 18.6852 20.0602C18.404 20.3414 18.0227 20.4996 17.625 20.5ZM21.375 18.25H20.5185C20.3533 17.6076 19.9796 17.0381 19.4559 16.6309C18.9323 16.2238 18.2883 16.0018 17.625 16V14.5H21.375V18.25Z" fill="#202020"/>
</svg>
