<svg width="34" height="33" viewBox="0 0 34 33" fill="none" xmlns="http://www.w3.org/2000/svg">
<g clip-path="url(#clip0_2253_714)">
<path d="M13.7 23.8333V22H2.1665L2.15 29.3333C2.15 31.3683 3.6185 33 5.45 33H28.55C30.3815 33 31.85 31.3683 31.85 29.3333V22H20.3V23.8333H13.7ZM30.2 7.33333H23.5835V3.66667L20.2835 0H13.6835L10.3835 3.66667V7.33333H3.8C1.985 7.33333 0.5 8.98333 0.5 11V16.5C0.5 18.535 1.9685 20.1667 3.8 20.1667H13.7V16.5H20.3V20.1667H30.2C32.015 20.1667 33.5 18.5167 33.5 16.5V11C33.5 8.98333 32.015 7.33333 30.2 7.33333ZM20.3 7.33333H13.7V3.66667H20.3V7.33333Z" fill="#ED555A"/>
</g>
<defs>
<clipPath id="clip0_2253_714">
<rect width="33" height="33" fill="white" transform="translate(0.5)"/>
</clipPath>
</defs>
</svg>
