<svg width="21" height="21" viewBox="0 0 21 21" fill="none" xmlns="http://www.w3.org/2000/svg">
<g clip-path="url(#clip0_2253_1045)">
<mask id="mask0_2253_1045" style="mask-type:luminance" maskUnits="userSpaceOnUse" x="1" y="2" width="20" height="17">
<path d="M2.47916 4.58333C2.47916 4.36232 2.56695 4.15036 2.72323 3.99408C2.87951 3.8378 3.09148 3.75 3.31249 3.75H18.3125C18.5335 3.75 18.7455 3.8378 18.9017 3.99408C19.058 4.15036 19.1458 4.36232 19.1458 4.58333V16.25C19.1458 16.471 19.058 16.683 18.9017 16.8393C18.7455 16.9955 18.5335 17.0833 18.3125 17.0833H3.31249C3.09148 17.0833 2.87951 16.9955 2.72323 16.8393C2.56695 16.683 2.47916 16.471 2.47916 16.25V4.58333Z" fill="white" stroke="white" stroke-width="2.75" stroke-linejoin="round"/>
<path d="M2.47916 7.08301H19.1458" stroke="black" stroke-width="2.75" stroke-linecap="square" stroke-linejoin="round"/>
<path d="M12.0625 13.75H15.8125" stroke="black" stroke-width="2.75" stroke-linecap="round" stroke-linejoin="round"/>
<path d="M19.1458 4.58301V11.2497M2.47916 4.58301V11.2497" stroke="white" stroke-width="2.75" stroke-linecap="round" stroke-linejoin="round"/>
</mask>
<g mask="url(#mask0_2253_1045)">
<path d="M0.8125 0.416992H20.8125V20.417H0.8125V0.416992Z" fill="#202020"/>
</g>
</g>
<defs>
<clipPath id="clip0_2253_1045">
<rect width="20" height="20" fill="white" transform="translate(0.8125 0.416992)"/>
</clipPath>
</defs>
</svg>
