<svg preserveAspectRatio="none0" viewBox="0 0 41 40" fill="none" xmlns="http://www.w3.org/2000/svg">
<path d="M28.8332 30C26.9832 30 25.4998 31.4833 25.4998 33.3333C25.4998 34.2174 25.851 35.0652 26.4762 35.6904C27.1013 36.3155 27.9491 36.6667 28.8332 36.6667C29.7172 36.6667 30.5651 36.3155 31.1902 35.6904C31.8153 35.0652 32.1665 34.2174 32.1665 33.3333C32.1665 32.4493 31.8153 31.6014 31.1902 30.9763C30.5651 30.3512 29.7172 30 28.8332 30ZM2.1665 3.33333V6.66666H5.49984L11.4998 19.3167L9.23317 23.4C8.98317 23.8667 8.83317 24.4167 8.83317 25C8.83317 25.8841 9.18436 26.7319 9.80948 27.357C10.4346 27.9821 11.2824 28.3333 12.1665 28.3333H32.1665V25H12.8665C12.756 25 12.65 24.9561 12.5719 24.878C12.4937 24.7998 12.4498 24.6938 12.4498 24.5833C12.4498 24.5 12.4665 24.4333 12.4998 24.3833L13.9998 21.6667H26.4165C27.6665 21.6667 28.7665 20.9667 29.3332 19.95L35.2998 9.16666C35.4165 8.9 35.4998 8.61666 35.4998 8.33333C35.4998 7.8913 35.3242 7.46738 35.0117 7.15482C34.6991 6.84226 34.2752 6.66666 33.8332 6.66666H9.18317L7.6165 3.33333M12.1665 30C10.3165 30 8.83317 31.4833 8.83317 33.3333C8.83317 34.2174 9.18436 35.0652 9.80948 35.6904C10.4346 36.3155 11.2824 36.6667 12.1665 36.6667C13.0506 36.6667 13.8984 36.3155 14.5235 35.6904C15.1486 35.0652 15.4998 34.2174 15.4998 33.3333C15.4998 32.4493 15.1486 31.6014 14.5235 30.9763C13.8984 30.3512 13.0506 30 12.1665 30Z" fill="#FCCA46"/>
</svg>
