<svg width="34" height="33" viewBox="0 0 34 33" fill="none" xmlns="http://www.w3.org/2000/svg">
<g clip-path="url(#clip0_2253_702)">
<path d="M25.877 33.1183L25.0465 32.703C23.4817 31.9206 18.3736 28.985 18.3736 24.079V18.7C18.3736 17.5148 19.1299 16.467 20.2574 16.093L25.9361 14.2092L31.6149 16.093C32.741 16.4656 33.4986 17.5134 33.4986 18.7V24.079C33.4986 29.6216 28.3245 32.1338 26.7378 32.7718L25.877 33.1183ZM15.625 24.079V23.3736H6V20.6236H15.625V18.7C15.625 18.4003 15.6497 18.1046 15.6965 17.8172L15.625 17.8736H6V15.1236H16.9478C17.583 14.3825 18.419 13.8077 19.3925 13.4846L25.25 11.5417V2.75H18.1399C17.572 1.1495 16.043 0 14.25 0H11.5C9.707 0 8.178 1.1495 7.61013 2.75H0.5V28.875C0.5 31.1493 2.35075 33 4.625 33H20.4513C18.1248 31.1327 15.625 28.1724 15.625 24.0804V24.079ZM6 9.625H19.75V12.375H6V9.625Z" fill="#ED555A"/>
</g>
<defs>
<clipPath id="clip0_2253_702">
<rect width="33" height="33" fill="white" transform="translate(0.5)"/>
</clipPath>
</defs>
</svg>
