<svg xmlns="http://www.w3.org/2000/svg" version="1.1" xmlns:xlink="http://www.w3.org/1999/xlink" xmlns:svgjs="http://svgjs.com/svgjs" width="1000" height="1000"><rect width="1000" height="1000" rx="200" ry="200" fill="#555555"></rect><g transform="matrix(14.285714285714286,0,0,14.285714285714286,107.134056683663,100)"><svg xmlns="http://www.w3.org/2000/svg" version="1.1" xmlns:xlink="http://www.w3.org/1999/xlink" xmlns:svgjs="http://svgjs.com/svgjs" width="55" height="56"><svg viewBox="0 0 55 56" fill="none" xmlns="http://www.w3.org/2000/svg">
<path d="M39.9965 23.8226L35.8226 28L12.5032 4.68538V4.63321L16.629 0.503998H16.6971L39.9965 23.8226Z" fill="#FE7F2D"></path>
<path d="M42.5064 4.64526L38.3486 0.5H38.3125L29.5837 9.23595V9.27207L33.7256 13.4334H33.7777L42.5064 4.68138V4.64526Z" fill="#FCCA46"></path>
<path d="M14.9971 23.8026L10.8392 28L0.0415346 17.2054L0.0320287 17.1865L0.0335142 17.1653L0.0415346 17.1533L4.17135 13.0201H4.22347L15.0131 23.8226L14.9971 23.8026Z" fill="#FE7F2D"></path>
<path d="M44.1743 28.016L39.9963 32.1774L33.7615 38.4213H33.7415L29.6037 34.2961L29.5836 34.26V34.2279L35.8385 28L50.806 13.004C50.8155 12.9958 50.8276 12.9913 50.8401 12.9913C50.8526 12.9913 50.8647 12.9958 50.8742 13.004L55 17.1292V17.2014L44.2064 28.0361L44.1743 28.016ZM19.1869 28L15.029 32.1974L4.20331 42.996H4.17123L0.0133539 38.8748L0.00132425 38.8628L0.00169134 38.841L0.0133539 38.8226L10.803 27.988L14.9769 23.8066L21.2157 17.6148V17.5987L21.2338 17.5944L21.2518 17.5987L25.3937 21.744V21.7801L19.1669 28.016L19.1869 28Z" fill="#FCCA46"></path>
<path d="M19.1867 28L42.4901 51.3186V51.3708L38.3643 55.5H38.3322L15.0288 32.1974L19.1867 28ZM44.1741 28.0161L54.9998 38.8347V38.8868L50.8579 43.016L50.8399 43.0203L50.8219 43.016L39.9961 32.1974L44.158 28.0361H44.1901L44.1741 28.0161Z" fill="#FE7F2D"></path>
<path d="M12.5031 51.3227L21.2318 42.5827L21.2438 42.5747H21.2719C21.2772 42.5747 21.2813 42.5773 21.2839 42.5827L25.4097 46.728H25.4258V46.7801L16.697 55.5H16.6609L12.5031 51.3708V51.3548C12.5002 51.3492 12.4988 51.343 12.4988 51.3367C12.4988 51.3304 12.5002 51.3283 12.5031 51.3227Z" fill="#FCCA46"></path>
</svg></svg></g></svg>