<svg width="40" height="41" viewBox="0 0 40 41" fill="none" xmlns="http://www.w3.org/2000/svg">
<path fill-rule="evenodd" clip-rule="evenodd" d="M19.6206 23.9489L28.2703 32.5986C28.7293 33.0576 29.3518 33.3154 30.0009 33.3154C30.65 33.3154 31.2725 33.0576 31.7315 32.5986C32.1905 32.1396 32.4483 31.5171 32.4483 30.868C32.4483 30.2189 32.1905 29.5964 31.7315 29.1374L23.0785 20.4877L31.7299 11.838C31.957 11.6108 32.1372 11.341 32.2601 11.0441C32.383 10.7472 32.4462 10.429 32.4461 10.1077C32.446 9.78636 32.3827 9.4682 32.2596 9.17136C32.1366 8.87452 31.9563 8.60483 31.729 8.37767C31.5018 8.15051 31.232 7.97034 30.9351 7.84745C30.6382 7.72455 30.32 7.66134 29.9987 7.66141C29.6774 7.66149 29.3592 7.72485 29.0624 7.84789C28.7655 7.97092 28.4958 8.15122 28.2687 8.37849L19.6206 17.0282L10.9709 8.37849C10.7454 8.1447 10.4755 7.95819 10.177 7.82982C9.87859 7.70146 9.55758 7.63381 9.23272 7.63084C8.90786 7.62786 8.58566 7.68962 8.28492 7.81249C7.98418 7.93537 7.71092 8.11691 7.48109 8.34653C7.25126 8.57614 7.06946 8.84922 6.9463 9.14985C6.82314 9.45047 6.76109 9.77261 6.76375 10.0975C6.76642 10.4223 6.83376 10.7434 6.96185 11.042C7.08993 11.3405 7.27619 11.6106 7.50976 11.8364L16.1627 20.4877L7.51139 29.139C7.27782 29.3648 7.09156 29.6349 6.96348 29.9335C6.8354 30.232 6.76805 30.5531 6.76539 30.878C6.76272 31.2028 6.82477 31.525 6.94793 31.8256C7.07109 32.1262 7.25289 32.3993 7.48272 32.6289C7.71255 32.8585 7.98581 33.0401 8.28655 33.1629C8.58729 33.2858 8.90949 33.3476 9.23435 33.3446C9.55921 33.3416 9.88022 33.274 10.1787 33.1456C10.4771 33.0173 10.747 32.8307 10.9726 32.597L19.6206 23.9489Z" fill="black"/>
</svg>
