<svg width="34" height="33" viewBox="0 0 34 33" fill="none" xmlns="http://www.w3.org/2000/svg">
<g clip-path="url(#clip0_2253_710)">
<path d="M7.37502 30.25C8.10437 30.25 8.80384 29.9603 9.31957 29.4445C9.83529 28.9288 10.125 28.2293 10.125 27.5V19.25C10.125 18.5207 9.83529 17.8212 9.31957 17.3055C8.80384 16.7897 8.10437 16.5 7.37502 16.5V15.125C7.37502 12.5723 8.38908 10.1241 10.1941 8.3191C11.9992 6.51406 14.4473 5.5 17 5.5C19.5527 5.5 22.0009 6.51406 23.8059 8.3191C25.611 10.1241 26.625 12.5723 26.625 15.125V16.5C25.8957 16.5 25.1962 16.7897 24.6805 17.3055C24.1648 17.8212 23.875 18.5207 23.875 19.25V27.5H19.75C19.3854 27.5 19.0356 27.6449 18.7778 27.9027C18.5199 28.1606 18.375 28.5103 18.375 28.875C18.375 29.2397 18.5199 29.5894 18.7778 29.8473C19.0356 30.1051 19.3854 30.25 19.75 30.25H26.625C28.2008 30.2453 29.7271 29.6994 30.9485 28.7037C32.1698 27.7081 33.0121 26.3231 33.3343 24.7806C33.6564 23.2381 33.4389 21.6317 32.7182 20.2305C31.9974 18.8292 30.8172 17.718 29.375 17.083V15.125C29.375 11.8429 28.0712 8.69532 25.7505 6.37455C23.4297 4.05379 20.2821 2.75 17 2.75C13.718 2.75 10.5703 4.05379 8.24958 6.37455C5.92881 8.69532 4.62502 11.8429 4.62502 15.125V17.083C3.18287 17.718 2.00262 18.8292 1.28188 20.2305C0.561132 21.6317 0.343632 23.2381 0.66579 24.7806C0.987948 26.3231 1.83021 27.7081 3.05157 28.7037C4.27293 29.6994 5.79926 30.2453 7.37502 30.25Z" fill="#ED555A"/>
</g>
<defs>
<clipPath id="clip0_2253_710">
<rect width="33" height="33" fill="white" transform="translate(0.5)"/>
</clipPath>
</defs>
</svg>
