<svg width="34" height="34" viewBox="0 0 34 34" fill="none" xmlns="http://www.w3.org/2000/svg">
<g clip-path="url(#clip0_2253_1096)">
<path d="M24.8163 1.76074C23.268 1.78483 21.7535 2.21704 20.4256 3.01374C19.0978 3.81044 18.0037 4.94341 17.2538 6.29824C16.504 4.94341 15.4099 3.81044 14.0821 3.01374C12.7542 2.21704 11.2397 1.78483 9.69135 1.76074C7.22314 1.86798 4.89769 2.94772 3.22305 4.76406C1.54841 6.58041 0.660692 8.98571 0.753849 11.4545C0.753849 20.7701 15.8183 31.5295 16.4591 31.986L17.2538 32.5484L18.0486 31.986C18.6894 31.5322 33.7538 20.7701 33.7538 11.4545C33.847 8.98571 32.9593 6.58041 31.2846 4.76406C29.61 2.94772 27.2846 1.86798 24.8163 1.76074Z" fill="#ED555A"/>
</g>
<defs>
<clipPath id="clip0_2253_1096">
<rect width="33" height="33" fill="white" transform="translate(0.753662 0.5)"/>
</clipPath>
</defs>
</svg>
