<svg width="34" height="33" viewBox="0 0 34 33" fill="none" xmlns="http://www.w3.org/2000/svg">
<g clip-path="url(#clip0_2253_694)">
<path d="M17 33C20.2634 33 23.4535 32.0323 26.1669 30.2193C28.8803 28.4062 30.9952 25.8293 32.244 22.8143C33.4929 19.7993 33.8196 16.4817 33.183 13.281C32.5463 10.0803 30.9748 7.14031 28.6673 4.83275C26.3597 2.52518 23.4197 0.953706 20.219 0.31705C17.0183 -0.319606 13.7007 0.00714922 10.6857 1.256C7.67074 2.50484 5.09379 4.61969 3.28075 7.3331C1.46771 10.0465 0.5 13.2366 0.5 16.5C0.504731 20.8746 2.24464 25.0687 5.33796 28.162C8.43129 31.2554 12.6254 32.9953 17 33ZM17 6.87501C17.4079 6.87501 17.8067 6.99597 18.1459 7.2226C18.485 7.44923 18.7494 7.77135 18.9055 8.14822C19.0616 8.52509 19.1025 8.9398 19.0229 9.33988C18.9433 9.73997 18.7469 10.1075 18.4584 10.3959C18.17 10.6844 17.8025 10.8808 17.4024 10.9604C17.0023 11.04 16.5876 10.9991 16.2107 10.843C15.8338 10.6869 15.5117 10.4225 15.2851 10.0834C15.0585 9.74419 14.9375 9.34543 14.9375 8.93751C14.9375 8.3905 15.1548 7.86589 15.5416 7.4791C15.9284 7.09231 16.453 6.87501 17 6.87501ZM15.625 13.75H17C17.7293 13.75 18.4288 14.0397 18.9445 14.5555C19.4603 15.0712 19.75 15.7707 19.75 16.5V24.75C19.75 25.1147 19.6051 25.4644 19.3473 25.7223C19.0894 25.9801 18.7397 26.125 18.375 26.125C18.0103 26.125 17.6606 25.9801 17.4027 25.7223C17.1449 25.4644 17 25.1147 17 24.75V16.5H15.625C15.2603 16.5 14.9106 16.3551 14.6527 16.0973C14.3949 15.8394 14.25 15.4897 14.25 15.125C14.25 14.7603 14.3949 14.4106 14.6527 14.1527C14.9106 13.8949 15.2603 13.75 15.625 13.75Z" fill="#ED555A"/>
</g>
<defs>
<clipPath id="clip0_2253_694">
<rect width="33" height="33" fill="white" transform="translate(0.5)"/>
</clipPath>
</defs>
</svg>
