<svg width="49" height="50" viewBox="0 0 49 50" fill="none" xmlns="http://www.w3.org/2000/svg">
<circle cx="24.5" cy="25" r="24.5" fill="#ED555A"/>
<g clip-path="url(#clip0_2253_1076)">
<path d="M22.6877 26.8721H23.7739V27.8905H22.6877V26.8721Z" fill="white"/>
<path d="M20.5154 26.8721H21.6016V27.8905H20.5154V26.8721Z" fill="white"/>
<path d="M18.343 26.8721H19.4292V27.8905H18.343V26.8721Z" fill="white"/>
<path d="M9.65344 30.6059H27.5755V29.5875H10.6719V15.3993H31.9203V14.3809H9.65344V30.6059Z" fill="white"/>
<path d="M12.8442 20.2866V17.5712H15.6275V16.5527H11.8258V20.2866H12.8442Z" fill="white"/>
<path d="M35.1112 16.5529V11.665H6.93811V33.321H18.3431V35.2825L16.1707 37.4549V38.752H25.8786V37.4549L23.7063 35.2825V33.321H28.6619V38.752H41.6284V16.5529H35.1112ZM24.7173 37.7336H17.3998L19.0971 36.0365H23.02L24.7173 37.7336ZM19.3615 35.0181V33.321H22.6878V35.0181H19.3615ZM28.6619 32.3026H7.95654V12.6835H34.0928V16.5529H28.6619V32.3026ZM37.8945 37.7336H32.3958V36.0365H37.8945V37.7336ZM40.6099 37.7336H38.9129V35.0181H31.3773V37.7336H29.6803V26.2608H40.6099V37.7336ZM40.6099 25.2424H29.6803V23.5454H40.6099V25.2424ZM40.6099 22.5269H29.6803V20.8299H40.6099V22.5269ZM40.6099 19.8115H29.6803V17.5713H40.6099V19.8115Z" fill="white"/>
<path d="M35.1789 32.473C36.0586 32.473 36.7743 31.7574 36.7743 30.8776C36.7743 29.9979 36.0586 29.2822 35.1789 29.2822C34.2994 29.2822 33.5837 29.9979 33.5837 30.8776C33.5837 31.7574 34.2994 32.473 35.1789 32.473ZM35.1789 30.3007C35.4973 30.3007 35.7561 30.5595 35.7561 30.8776C35.7561 31.1958 35.4973 31.4546 35.1789 31.4546C34.8608 31.4546 34.6019 31.1958 34.6019 30.8776C34.6019 30.5595 34.8608 30.3007 35.1789 30.3007Z" fill="white"/>
</g>
<defs>
<clipPath id="clip0_2253_1076">
<rect width="34.6903" height="34.6903" fill="white" transform="translate(6.93787 7.87109)"/>
</clipPath>
</defs>
</svg>
