<svg width="31" height="31" viewBox="0 0 31 31" fill="none" xmlns="http://www.w3.org/2000/svg">
<g clip-path="url(#clip0_2253_356)">
<path d="M5.49998 0.5H9.24998C12.0114 0.5 14.25 2.73857 14.25 5.49998V9.24998C14.25 12.0114 12.0114 14.25 9.24998 14.25H5.49998C2.73857 14.25 0.5 12.0114 0.5 9.24998V5.49998C0.5 2.73857 2.73857 0.5 5.49998 0.5Z" fill="white"/>
<path d="M21.75 0.5H25.5C28.2614 0.5 30.5 2.73857 30.5 5.49998V9.24998C30.5 12.0114 28.2614 14.25 25.5 14.25H21.75C18.9886 14.25 16.75 12.0114 16.75 9.24998V5.49998C16.7499 2.73857 18.9885 0.5 21.75 0.5Z" fill="white"/>
<path d="M5.49998 16.75H9.24998C12.0114 16.75 14.25 18.9886 14.25 21.75V25.5C14.25 28.2614 12.0114 30.5 9.24998 30.5H5.49998C2.73857 30.5 0.5 28.2614 0.5 25.5V21.75C0.5 18.9886 2.73857 16.75 5.49998 16.75Z" fill="white"/>
<path d="M21.75 16.75H25.5C28.2614 16.75 30.5 18.9886 30.5 21.75V25.5C30.5 28.2614 28.2614 30.5 25.5 30.5H21.75C18.9886 30.5 16.75 28.2614 16.75 25.5V21.75C16.7499 18.9886 18.9885 16.75 21.75 16.75Z" fill="white"/>
</g>
<defs>
<clipPath id="clip0_2253_356">
<rect width="30" height="30" fill="white" transform="translate(0.5 0.5)"/>
</clipPath>
</defs>
</svg>
