<svg width="34" height="34" viewBox="0 0 34 34" fill="none" xmlns="http://www.w3.org/2000/svg">
<g clip-path="url(#clip0_2253_1098)">
<path d="M31.984 6.10588C31.5973 5.64173 31.1131 5.26843 30.5658 5.0125C30.0185 4.75656 29.4216 4.62426 28.8174 4.625H6.58641L6.52866 4.14237C6.41048 3.1392 5.92832 2.21426 5.17359 1.54291C4.41886 0.871557 3.44403 0.50047 2.43391 0.5L2.12866 0.5C1.76399 0.5 1.41425 0.644866 1.15639 0.902728C0.898528 1.16059 0.753662 1.51033 0.753662 1.875C0.753662 2.23967 0.898528 2.58941 1.15639 2.84727C1.41425 3.10513 1.76399 3.25 2.12866 3.25H2.43391C2.7707 3.25004 3.09575 3.37369 3.34742 3.59748C3.5991 3.82128 3.75988 4.12965 3.79929 4.46412L5.69129 20.5516C5.88771 22.2247 6.69157 23.7674 7.95029 24.887C9.209 26.0066 10.835 26.625 12.5195 26.625H26.8787C27.2433 26.625 27.5931 26.4801 27.8509 26.2223C28.1088 25.9644 28.2537 25.6147 28.2537 25.25C28.2537 24.8853 28.1088 24.5356 27.8509 24.2777C27.5931 24.0199 27.2433 23.875 26.8787 23.875H12.5195C11.6685 23.8726 10.839 23.607 10.1448 23.1147C9.45063 22.6224 8.92572 21.9274 8.64204 21.125H25.032C26.6439 21.1251 28.2046 20.5588 29.4414 19.5251C30.6782 18.4914 31.5125 17.056 31.7984 15.4696L32.8778 9.48287C32.9855 8.88888 32.9613 8.27847 32.8069 7.69488C32.6524 7.11129 32.3715 6.56881 31.984 6.10588Z" fill="#ED555A"/>
<path d="M10.3787 33.5C11.8974 33.5 13.1287 32.2688 13.1287 30.75C13.1287 29.2312 11.8974 28 10.3787 28C8.85988 28 7.62866 29.2312 7.62866 30.75C7.62866 32.2688 8.85988 33.5 10.3787 33.5Z" fill="#ED555A"/>
<path d="M24.1287 33.5C25.6474 33.5 26.8787 32.2688 26.8787 30.75C26.8787 29.2312 25.6474 28 24.1287 28C22.6099 28 21.3787 29.2312 21.3787 30.75C21.3787 32.2688 22.6099 33.5 24.1287 33.5Z" fill="#ED555A"/>
</g>
<defs>
<clipPath id="clip0_2253_1098">
<rect width="33" height="33" fill="white" transform="translate(0.753662 0.5)"/>
</clipPath>
</defs>
</svg>
