<svg width="33" height="34" viewBox="0 0 33 34" fill="none" xmlns="http://www.w3.org/2000/svg">
<path d="M16.5 3.33301C8.91 3.33301 2.75 9.49301 2.75 17.083C2.75 24.673 8.91 30.833 16.5 30.833C24.09 30.833 30.25 24.673 30.25 17.083C30.25 9.49301 24.09 3.33301 16.5 3.33301ZM22.88 12.683C22.6737 14.8555 21.78 20.1355 21.3263 22.5693C21.1338 23.6005 20.7488 23.9443 20.3913 23.9855C19.5938 24.0543 18.9888 23.463 18.2188 22.9543C17.0087 22.1568 16.3212 21.6618 15.1525 20.8918C13.7913 19.998 14.6713 19.503 15.455 18.7055C15.6613 18.4993 19.1812 15.2955 19.25 15.0068C19.2596 14.963 19.2583 14.9176 19.2463 14.8745C19.2343 14.8314 19.212 14.7918 19.1812 14.7593C19.0987 14.6905 18.9888 14.718 18.8925 14.7318C18.7687 14.7593 16.8438 16.038 13.09 18.568C12.54 18.9393 12.045 19.1318 11.605 19.118C11.11 19.1043 10.175 18.843 9.47375 18.6093C8.6075 18.3343 7.93375 18.183 7.98875 17.7018C8.01625 17.4543 8.36 17.2068 9.00625 16.9455C13.0213 15.1993 15.6888 14.0443 17.0225 13.4943C20.845 11.8993 21.6288 11.6243 22.1513 11.6243C22.2613 11.6243 22.5225 11.6518 22.6875 11.7893C22.825 11.8993 22.8662 12.0505 22.88 12.1605C22.8662 12.243 22.8937 12.4905 22.88 12.683Z" fill="#30A7CD"/>
</svg>
