<svg width="44" height="44" viewBox="0 0 44 44" fill="none" xmlns="http://www.w3.org/2000/svg">
<path d="M22.077 4.01904C12.1516 4.01904 4.09619 12.0744 4.09619 21.9998C4.09619 31.9252 12.1516 39.9806 22.077 39.9806C32.0023 39.9806 40.0577 31.9252 40.0577 21.9998C40.0577 12.0744 32.0023 4.01904 22.077 4.01904ZM30.42 16.246C30.1503 19.0869 28.9816 25.9915 28.3882 29.1741C28.1365 30.5227 27.633 30.9722 27.1655 31.0262C26.1226 31.1161 25.3315 30.3429 24.3246 29.6776C22.7422 28.6347 21.8432 27.9874 20.3148 26.9805C18.5347 25.8117 19.6855 25.1644 20.7104 24.1215C20.9801 23.8518 25.5832 19.6623 25.6731 19.2847C25.6856 19.2275 25.6839 19.1682 25.6683 19.1117C25.6526 19.0553 25.6234 19.0036 25.5832 18.9611C25.4753 18.8712 25.3315 18.9071 25.2056 18.9251C25.0438 18.9611 22.5265 20.6333 17.6177 23.9417C16.8985 24.4272 16.2512 24.6789 15.6758 24.661C15.0285 24.643 13.8058 24.3013 12.8888 23.9957C11.756 23.6361 10.8749 23.4383 10.9469 22.8089C10.9828 22.4853 11.4323 22.1616 12.2774 21.82C17.5278 19.5364 21.0161 18.0261 22.7602 17.3068C27.7589 15.2211 28.7838 14.8614 29.4671 14.8614C29.6109 14.8614 29.9525 14.8974 30.1683 15.0772C30.3481 15.2211 30.4021 15.4189 30.42 15.5627C30.4021 15.6706 30.438 15.9942 30.42 16.246Z" fill="#FCCA46"/>
</svg>
