<svg width="34" height="33" viewBox="0 0 34 33" fill="none" xmlns="http://www.w3.org/2000/svg">
<g clip-path="url(#clip0_2253_706)">
<path d="M28.6518 23.375C28.4333 23.375 28.2151 23.3897 27.9987 23.419V6.875C27.9987 5.78098 28.4333 4.73177 29.2068 3.95818C29.9804 3.1846 31.0296 2.75 32.1237 2.75C32.4883 2.75 32.8381 2.60513 33.0959 2.34727C33.3538 2.08941 33.4987 1.73967 33.4987 1.375C33.4987 1.01033 33.3538 0.660591 33.0959 0.402728C32.8381 0.144866 32.4883 0 32.1237 0C30.301 0.0021833 28.5536 0.727213 27.2647 2.01605C25.9759 3.30489 25.2508 5.05231 25.2487 6.875V22.3836L21.4894 23.6376C21.4963 23.1705 21.4238 22.7055 21.2749 22.2626L19.1395 15.2501C18.8056 14.2093 18.0731 13.343 17.1022 12.8408C16.1312 12.3386 15.001 12.2414 13.9585 12.5703L4.74603 15.499C3.71653 15.8324 2.85832 16.5553 2.35494 17.5133C1.85157 18.4712 1.74298 19.588 2.05241 20.625L4.29916 28.0129C4.44597 28.425 4.65814 28.8108 4.92753 29.1555L1.44053 30.3174C1.09409 30.4326 0.807622 30.6807 0.644137 31.0072C0.480652 31.3337 0.453547 31.7117 0.568783 32.0581C0.68402 32.4046 0.932159 32.691 1.25861 32.8545C1.58507 33.018 1.96309 33.0451 2.30953 32.9299L24.6767 25.4746C24.0707 26.3625 23.7795 27.4276 23.8493 28.5002C23.9192 29.5729 24.3461 30.5912 25.0621 31.393C25.778 32.1947 26.7418 32.7337 27.7997 32.924C28.8577 33.1143 29.9488 32.9449 30.8993 32.4429C31.8498 31.9408 32.6048 31.1351 33.044 30.154C33.4833 29.1729 33.5814 28.0731 33.3228 27.0297C33.0642 25.9864 32.4638 25.0597 31.6172 24.3973C30.7706 23.7349 29.7267 23.375 28.6518 23.375ZM12.721 18.7687L9.33166 19.8468C8.98413 19.9572 8.60693 19.9252 8.28306 19.7575C7.95918 19.5899 7.71515 19.3005 7.60466 18.953C7.49416 18.6055 7.52625 18.2283 7.69386 17.9044C7.86147 17.5805 8.15088 17.3365 8.49841 17.226L11.8878 16.148C12.0599 16.0933 12.241 16.073 12.421 16.0883C12.6009 16.1036 12.776 16.1542 12.9364 16.2372C13.0968 16.3202 13.2392 16.434 13.3556 16.572C13.472 16.71 13.5601 16.8697 13.6148 17.0417C13.6695 17.2138 13.6898 17.395 13.6745 17.5749C13.6592 17.7548 13.6086 17.93 13.5256 18.0904C13.4426 18.2507 13.3288 18.3932 13.1908 18.5096C13.0527 18.626 12.8931 18.714 12.721 18.7687Z" fill="#ED555A"/>
</g>
<defs>
<clipPath id="clip0_2253_706">
<rect width="33" height="33" fill="white" transform="translate(0.5)"/>
</clipPath>
</defs>
</svg>
