<svg width="50" height="50" viewBox="0 0 50 50" fill="none" xmlns="http://www.w3.org/2000/svg">
<g clip-path="url(#clip0_2253_1104)">
<path fill-rule="evenodd" clip-rule="evenodd" d="M25 4.16699C13.4937 4.16699 4.16666 13.4941 4.16666 25.0003C4.16666 36.5066 13.4937 45.8337 25 45.8337C36.5062 45.8337 45.8333 36.5066 45.8333 25.0003C45.8333 13.4941 36.5062 4.16699 25 4.16699ZM17.7083 19.792C17.7083 18.8344 17.8969 17.8863 18.2634 17.0016C18.6298 16.1169 19.1669 15.3131 19.844 14.636C20.5211 13.9589 21.3249 13.4218 22.2096 13.0554C23.0943 12.6889 24.0424 12.5003 25 12.5003C25.9575 12.5003 26.9057 12.6889 27.7904 13.0554C28.6751 13.4218 29.4789 13.9589 30.156 14.636C30.8331 15.3131 31.3702 16.1169 31.7366 17.0016C32.1031 17.8863 32.2917 18.8344 32.2917 19.792C32.2917 21.7259 31.5234 23.5805 30.156 24.948C28.7885 26.3154 26.9339 27.0837 25 27.0837C23.0661 27.0837 21.2115 26.3154 19.844 24.948C18.4766 23.5805 17.7083 21.7259 17.7083 19.792ZM38.0375 35.3837C36.478 37.3454 34.4954 38.9294 32.2378 40.0174C29.9803 41.1054 27.5061 41.6693 25 41.667C22.4939 41.6693 20.0197 41.1054 17.7621 40.0174C15.5046 38.9294 13.522 37.3454 11.9625 35.3837C15.3396 32.9607 19.9479 31.2503 25 31.2503C30.0521 31.2503 34.6604 32.9607 38.0375 35.3837Z" fill="#ED555A"/>
</g>
<defs>
<clipPath id="clip0_2253_1104">
<rect width="50" height="50" fill="white"/>
</clipPath>
</defs>
</svg>
