<svg width="33" height="34" viewBox="0 0 33 34" fill="none" xmlns="http://www.w3.org/2000/svg">
<path d="M16.75 3.58301C9.15599 3.58301 3 9.739 3 17.333C3 24.927 9.15599 31.083 16.75 31.083C24.344 31.083 30.5 24.927 30.5 17.333C30.5 9.739 24.344 3.58301 16.75 3.58301ZM22.038 19.0962C22.038 19.0962 23.254 20.2964 23.5534 20.8536C23.562 20.865 23.5663 20.8765 23.5691 20.8822C23.6909 21.087 23.7195 21.246 23.6594 21.3649C23.5591 21.5626 23.2154 21.66 23.0979 21.6686H20.9495C20.8005 21.6686 20.4883 21.6299 20.1102 21.3692C19.8194 21.1658 19.5329 20.8321 19.2536 20.507C18.8368 20.0229 18.4759 19.6046 18.1121 19.6046C18.0659 19.6045 18.02 19.6118 17.976 19.6261C17.701 19.7149 17.3487 20.1074 17.3487 21.1529C17.3487 21.4795 17.0909 21.6671 16.909 21.6671H15.925C15.5898 21.6671 13.8439 21.5497 12.297 19.9183C10.4035 17.9202 8.69909 13.9127 8.68476 13.8755C8.57734 13.6162 8.79935 13.4773 9.04141 13.4773H11.2113C11.5007 13.4773 11.5952 13.6534 11.6611 13.8096C11.7384 13.9915 12.022 14.7148 12.4875 15.5283C13.2423 16.8546 13.7049 17.3932 14.0759 17.3932C14.1455 17.3923 14.2138 17.3747 14.275 17.3416C14.7591 17.0723 14.6689 15.3464 14.6474 14.9883C14.6474 14.921 14.646 14.2163 14.3982 13.8783C14.2206 13.6334 13.9184 13.5403 13.735 13.5059C13.8092 13.4035 13.907 13.3205 14.0201 13.2639C14.3523 13.0977 14.951 13.0734 15.5454 13.0734H15.8763C16.5208 13.082 16.687 13.1235 16.9204 13.1822C17.3931 13.2954 17.4031 13.6005 17.3616 14.6446C17.3487 14.9411 17.3358 15.2762 17.3358 15.6715C17.3358 15.7575 17.3315 15.8492 17.3315 15.9465C17.3172 16.4779 17.3 17.0809 17.6753 17.3287C17.7242 17.3594 17.7808 17.3758 17.8385 17.376C17.9689 17.376 18.3613 17.376 19.4241 15.5527C19.7518 14.9658 20.0367 14.356 20.2763 13.7279C20.2978 13.6907 20.3608 13.5761 20.4353 13.5317C20.4903 13.5037 20.5512 13.4894 20.6129 13.4902H23.1638C23.4417 13.4902 23.6322 13.5317 23.668 13.6391C23.731 13.8096 23.6565 14.3295 22.4921 15.9064L21.9721 16.5925C20.9165 17.9761 20.9165 18.0463 22.038 19.0962Z" fill="#4A76A8"/>
</svg>
