<svg width="44" height="44" viewBox="0 0 44 44" fill="none" xmlns="http://www.w3.org/2000/svg">
<path d="M22.2498 4.34619C12.3192 4.34619 4.26904 12.3963 4.26904 22.327C4.26904 32.2576 12.3192 40.3077 22.2498 40.3077C32.1804 40.3077 40.2306 32.2576 40.2306 22.327C40.2306 12.3963 32.1804 4.34619 22.2498 4.34619ZM29.1649 24.6326C29.1649 24.6326 30.7551 26.2022 31.1465 26.9308C31.1578 26.9458 31.1634 26.9608 31.1671 26.9682C31.3264 27.2361 31.3638 27.444 31.2851 27.5994C31.154 27.8579 30.7045 27.9853 30.5509 27.9965H27.7414C27.5466 27.9965 27.1383 27.9459 26.6439 27.6051C26.2636 27.3391 25.889 26.9027 25.5238 26.4775C24.9788 25.8444 24.5068 25.2975 24.031 25.2975C23.9706 25.2974 23.9105 25.3069 23.8531 25.3256C23.4935 25.4418 23.0327 25.955 23.0327 27.3222C23.0327 27.7493 22.6956 27.9946 22.4577 27.9946H21.171C20.7327 27.9946 18.4495 27.8411 16.4267 25.7077C13.9506 23.0949 11.7217 17.8542 11.703 17.8055C11.5625 17.4665 11.8528 17.2849 12.1693 17.2849H15.0069C15.3853 17.2849 15.5089 17.5152 15.5951 17.7194C15.6962 17.9573 16.067 18.9031 16.6758 19.967C17.6628 21.7014 18.2678 22.4056 18.7529 22.4056C18.8439 22.4046 18.9332 22.3814 19.0133 22.3382C19.6463 21.9861 19.5283 19.7291 19.5003 19.2609C19.5003 19.1728 19.4984 18.2513 19.1743 17.8093C18.9421 17.489 18.5469 17.3673 18.3072 17.3223C18.4042 17.1884 18.532 17.0798 18.6799 17.0058C19.1144 16.7885 19.8973 16.7567 20.6746 16.7567H21.1073C21.9501 16.7679 22.1674 16.8222 22.4727 16.899C23.0908 17.047 23.1039 17.4459 23.0496 18.8113C23.0327 19.1991 23.0159 19.6373 23.0159 20.1543C23.0159 20.2667 23.0102 20.3865 23.0102 20.5139C22.9915 21.2088 22.969 21.9973 23.4598 22.3213C23.5238 22.3615 23.5977 22.3829 23.6733 22.3831C23.8437 22.3831 24.3569 22.3832 25.7467 19.9988C26.1753 19.2314 26.5478 18.4339 26.8611 17.6126C26.8892 17.5639 26.9716 17.4141 27.069 17.356C27.1409 17.3194 27.2206 17.3007 27.3013 17.3017H30.6371C31.0005 17.3017 31.2496 17.356 31.2964 17.4965C31.3788 17.7194 31.2814 18.3993 29.7587 20.4615L29.0788 21.3586C27.6984 23.1679 27.6984 23.2597 29.1649 24.6326Z" fill="#FCCA46"/>
</svg>
