<svg width="33" height="34" viewBox="0 0 33 34" fill="none" xmlns="http://www.w3.org/2000/svg">
<path d="M16.5014 3.33301C24.0955 3.33301 30.2514 9.48888 30.2514 17.083C30.2514 24.6771 24.0955 30.833 16.5014 30.833C14.0714 30.8369 11.6843 30.1939 9.58511 28.9699L2.75686 30.833L4.61586 24.002C3.39087 21.9022 2.7473 19.514 2.75136 17.083C2.75136 9.48888 8.90724 3.33301 16.5014 3.33301ZM11.8154 10.6205L11.5404 10.6315C11.3623 10.6423 11.1883 10.6891 11.0289 10.769C10.8797 10.8535 10.7435 10.9591 10.6246 11.0825C10.4596 11.2379 10.3661 11.3726 10.2657 11.5033C9.75715 12.1645 9.48332 12.9763 9.48749 13.8105C9.49024 14.4843 9.66624 15.1401 9.94124 15.7534C10.5036 16.9936 11.429 18.3068 12.65 19.5236C12.9442 19.8165 13.233 20.1108 13.5437 20.3844C15.0609 21.7201 16.8688 22.6834 18.8237 23.1976L19.6047 23.3173C19.8591 23.331 20.1135 23.3118 20.3692 23.2994C20.7697 23.2787 21.1607 23.1703 21.5146 22.9818C21.6947 22.889 21.8704 22.7881 22.0412 22.6793C22.0412 22.6793 22.1004 22.6408 22.2131 22.5555C22.3987 22.418 22.5129 22.3204 22.6669 22.1595C22.781 22.0413 22.88 21.9024 22.9556 21.7443C23.0629 21.5201 23.1701 21.0925 23.2141 20.7364C23.2471 20.4641 23.2375 20.3156 23.2334 20.2235C23.2279 20.0764 23.1055 19.9238 22.9721 19.8591L22.1719 19.5003C22.1719 19.5003 20.9756 18.9791 20.2441 18.6464C20.1676 18.613 20.0855 18.5939 20.0021 18.59C19.908 18.5803 19.813 18.5909 19.7233 18.6211C19.6337 18.6512 19.5515 18.7001 19.4824 18.7646C19.4755 18.7619 19.3834 18.8403 18.3892 20.0448C18.3322 20.1214 18.2536 20.1794 18.1635 20.2112C18.0733 20.243 17.9758 20.2473 17.8832 20.2235C17.7937 20.1995 17.7059 20.1692 17.6206 20.1328C17.4501 20.0613 17.391 20.0338 17.2741 19.9843C16.485 19.6399 15.7543 19.1746 15.1085 18.6051C14.9352 18.4539 14.7744 18.2889 14.6094 18.1294C14.0684 17.6113 13.597 17.0253 13.2069 16.3859L13.1257 16.2553C13.0675 16.1675 13.0204 16.0728 12.9855 15.9734C12.9332 15.7713 13.0694 15.609 13.0694 15.609C13.0694 15.609 13.4035 15.2433 13.5589 15.0453C13.7101 14.8528 13.838 14.6658 13.9205 14.5324C14.0827 14.2711 14.1336 14.003 14.0484 13.7954C13.6634 12.8549 13.2646 11.9185 12.8549 10.989C12.7737 10.8048 12.5331 10.6728 12.3145 10.6466C12.2402 10.6384 12.166 10.6301 12.0917 10.6246C11.9071 10.6155 11.722 10.6173 11.5376 10.6301L11.8154 10.6205Z" fill="#25D366"/>
</svg>
