<svg width="44" height="44" viewBox="0 0 44 44" fill="none" xmlns="http://www.w3.org/2000/svg">
<path d="M22.0023 4.01904C31.9331 4.01904 39.983 12.069 39.983 21.9998C39.983 31.9306 31.9331 39.9806 22.0023 39.9806C18.8247 39.9857 15.703 39.1448 12.958 37.5442L4.0287 39.9806L6.4597 31.0477C4.85778 28.3018 4.0162 25.1788 4.02151 21.9998C4.02151 12.069 12.0715 4.01904 22.0023 4.01904ZM15.8744 13.5489L15.5148 13.5632C15.282 13.5774 15.0545 13.6386 14.8459 13.743C14.6509 13.8535 14.4728 13.9916 14.3173 14.153C14.1015 14.3562 13.9793 14.5324 13.848 14.7032C13.1829 15.5679 12.8248 16.6295 12.8303 17.7204C12.8339 18.6014 13.064 19.4591 13.4237 20.2611C14.1591 21.8829 15.3692 23.6001 16.9659 25.1914C17.3507 25.5744 17.7282 25.9592 18.1346 26.317C20.1186 28.0638 22.4828 29.3234 25.0392 29.9959L26.0605 30.1523C26.3932 30.1703 26.7258 30.1451 27.0603 30.1289C27.5839 30.1019 28.0953 29.9601 28.5581 29.7136C28.7935 29.5923 29.0233 29.4603 29.2467 29.318C29.2467 29.318 29.324 29.2676 29.4715 29.1562C29.7142 28.9763 29.8635 28.8487 30.0649 28.6383C30.2141 28.4837 30.3436 28.3021 30.4424 28.0953C30.5827 27.8022 30.7229 27.243 30.7805 26.7773C30.8236 26.4213 30.8111 26.2271 30.8057 26.1066C30.7985 25.9142 30.6384 25.7146 30.464 25.6301L29.4175 25.1608C29.4175 25.1608 27.8532 24.4794 26.8966 24.0442C26.7965 24.0005 26.6893 23.9755 26.5802 23.9705C26.4572 23.9579 26.3329 23.9717 26.2156 24.0111C26.0984 24.0505 25.9909 24.1145 25.9005 24.1989C25.8915 24.1953 25.771 24.2978 24.471 25.8729C24.3964 25.9731 24.2936 26.0489 24.1758 26.0905C24.058 26.1322 23.9304 26.1378 23.8093 26.1066C23.6922 26.0752 23.5774 26.0356 23.4659 25.9879C23.2429 25.8944 23.1656 25.8585 23.0128 25.7938C21.9808 25.3434 21.0254 24.735 20.1808 23.9903C19.9543 23.7925 19.7439 23.5767 19.5281 23.3681C18.8207 22.6907 18.2042 21.9243 17.6941 21.0882L17.588 20.9174C17.5118 20.8026 17.4502 20.6788 17.4046 20.5488C17.3363 20.2844 17.5143 20.0723 17.5143 20.0723C17.5143 20.0723 17.9512 19.594 18.1544 19.3351C18.3522 19.0833 18.5194 18.8388 18.6273 18.6644C18.8395 18.3227 18.906 17.9721 18.7945 17.7006C18.291 16.4707 17.7696 15.2462 17.2338 14.0307C17.1277 13.7898 16.813 13.6172 16.5271 13.583C16.43 13.5722 16.3329 13.5614 16.2358 13.5542C15.9944 13.5422 15.7524 13.5446 15.5112 13.5614L15.8744 13.5489Z" fill="#FCCA46"/>
</svg>
